HIERARCHY
ROOT Pelvis
{
	OFFSET 0.000000 0.000000 0.000000
	CHANNELS 6 Xposition Yposition Zposition Xrotation Yrotation Zrotation
	JOINT LeftUpLeg_virtual
	{
		OFFSET 0.000000 0.000000 0.000000
		CHANNELS 3 Xrotation Yrotation Zrotation
		JOINT LeftUpLeg
		{
			OFFSET 8.479700 -4.795502 -0.379100
			CHANNELS 3 Xrotation Yrotation Zrotation
			JOINT LeftLeg
			{
				OFFSET 0.024144 -32.555107 0.112900
				CHANNELS 3 Xrotation Yrotation Zrotation
				JOINT LeftFoot
				{
					OFFSET -0.024144 -32.638630 -3.012600
					CHANNELS 3 Xrotation Yrotation Zrotation
					JOINT LeftToeBase
					{
						OFFSET 0.970200 -13.225400 11.864200
						CHANNELS 3 Xrotation Yrotation Zrotation
						End Site
						{
							OFFSET 0 0 0
						}
					}
				}
			}
		}
	}
	JOINT RightUpLeg_virtual
	{
		OFFSET 0.000000 0.000000 0.000000
		CHANNELS 3 Xrotation Yrotation Zrotation
		JOINT RightUpLeg
		{
			OFFSET -8.479700 -4.795502 -0.379100
			CHANNELS 3 Xrotation Yrotation Zrotation
			JOINT RightLeg
			{
				OFFSET -0.023144 -32.555092 0.112900
				CHANNELS 3 Xrotation Yrotation Zrotation
				JOINT RightFoot
				{
					OFFSET 0.023144 -32.638641 -3.012700
					CHANNELS 3 Xrotation Yrotation Zrotation
					JOINT RightToeBase
					{
						OFFSET -0.970200 -13.225400 11.864200
						CHANNELS 3 Xrotation Yrotation Zrotation
						End Site
						{
							OFFSET 0 0 0
						}
					}
				}
			}
		}
	}
	JOINT Hips_virtual
	{
		OFFSET 0.000000 0.000000 0.000000
		CHANNELS 3 Xrotation Yrotation Zrotation
		JOINT Hips
		{
			OFFSET -0.000000 -0.000000 -0.000000
			CHANNELS 3 Xrotation Yrotation Zrotation
			JOINT Spine
			{
				OFFSET 0.000000 7.722000 1.166200
				CHANNELS 3 Xrotation Yrotation Zrotation
				JOINT Spine1
				{
					OFFSET 0.000000 12.024101 0.248800
					CHANNELS 3 Xrotation Yrotation Zrotation
					JOINT Spine2
					{
						OFFSET 0.000000 11.502998 -0.491200
						CHANNELS 3 Xrotation Yrotation Zrotation
						JOINT Neck_virtual
						{
							OFFSET 0.000000 0.000000 0.000000
							CHANNELS 3 Xrotation Yrotation Zrotation
							JOINT Neck
							{
								OFFSET 0.000000 18.430702 -3.123100
								CHANNELS 3 Xrotation Yrotation Zrotation
								JOINT Head
								{
									OFFSET 0.000000 9.051102 1.034000
									CHANNELS 3 Xrotation Yrotation Zrotation
									End Site
									{
										OFFSET 0 0 0
									}
								}
							}
						}
						JOINT LeftShoulder_virtual
						{
							OFFSET 0.000000 0.000000 0.000000
							CHANNELS 3 Xrotation Yrotation Zrotation
							JOINT LeftShoulder
							{
								OFFSET 6.197800 13.665199 -4.064700
								CHANNELS 3 Xrotation Yrotation Zrotation
								JOINT LeftArm
								{
									OFFSET 7.778100 -0.187103 -1.709300
									CHANNELS 3 Xrotation Yrotation Zrotation
									JOINT LeftForeArm
									{
										OFFSET 22.049376 0.000000 0.000000
										CHANNELS 3 Xrotation Yrotation Zrotation
										JOINT LeftHand
										{
											OFFSET 23.009392 0.000000 0.000000
											CHANNELS 3 Xrotation Yrotation Zrotation
											End Site
											{
												OFFSET 0 0 0
											}
										}
									}
								}
							}
						}
						JOINT RightShoulder_virtual
						{
							OFFSET 0.000000 0.000000 0.000000
							CHANNELS 3 Xrotation Yrotation Zrotation
							JOINT RightShoulder
							{
								OFFSET -6.197800 13.665199 -4.064700
								CHANNELS 3 Xrotation Yrotation Zrotation
								JOINT RightArm
								{
									OFFSET -7.778100 -0.187103 -1.709300
									CHANNELS 3 Xrotation Yrotation Zrotation
									JOINT RightForeArm
									{
										OFFSET -22.049376 0.000000 0.000000
										CHANNELS 3 Xrotation Yrotation Zrotation
										JOINT RightHand
										{
											OFFSET -23.009392 0.000000 0.000000
											CHANNELS 3 Xrotation Yrotation Zrotation
											End Site
											{
												OFFSET 0 0 0
											}
										}
									}
								}
							}
						}
					}
				}
			}
		}
	}
}
MOTION
Frames: 4
Frame Time: 0.03333333
-0.250047 70.702080 0.244967 0.000000 0.000000 0.000000 11.695784 -49.489546 11.290268 -64.578476 28.127947 42.220896 45.036000 -20.081205 3.175742 2.545502 0.952066 -10.119406 0.000000 0.000000 0.000000 11.695784 -49.489546 11.290268 -33.975468 -0.459172 -24.258091 53.259677 1.997463 -6.750486 -26.565792 -2.745317 24.293514 0.000000 0.000000 0.000000 11.695784 -49.489546 11.290268 0.000000 0.000000 0.000000 10.973356 2.836681 -2.050337 6.100706 5.566526 -4.284678 0.000000 0.000000 0.000000 -5.786915 6.328138 -3.046186 2.318311 9.363374 -0.265393 0.000000 0.000000 0.000000 -5.786915 6.328138 -3.046186 -1.875351 -16.181758 -2.870482 -10.644677 2.164742 -45.510599 -22.862393 -25.786278 -15.871743 0.000000 0.000000 0.000000 -5.786915 6.328138 -3.046186 -5.074613 24.343752 1.482673 6.642347 -34.733739 57.610419 -21.032015 44.833819 19.961694 0.000000 0.000000 0.000000 
-0.235753 70.698761 0.364498 0.000000 0.000000 0.000000 11.214891 -51.099982 10.928672 -63.440798 27.767774 42.899305 45.668858 -20.146193 3.254167 1.404033 1.315477 -10.807343 0.000000 0.000000 0.000000 11.214891 -51.099982 10.928672 -33.964400 -0.210351 -24.117278 53.208987 2.887131 -6.718109 -26.434978 -2.063627 23.979647 0.000000 0.000000 0.000000 11.214891 -51.099982 10.928672 0.000000 -0.000001 0.000000 10.991509 2.837983 -2.039363 6.138153 5.594447 -4.285145 0.000000 0.000000 0.000000 -5.748710 6.468374 -2.981401 2.489923 9.336458 -0.252153 0.000000 0.000000 0.000000 -5.748710 6.468374 -2.981401 -1.831975 -15.691455 -2.734874 -10.284166 1.988963 -45.432820 -22.867642 -26.152782 -16.049804 0.000000 0.000000 0.000000 -5.748710 6.468374 -2.981401 -5.284797 25.012604 1.987642 5.891139 -33.544172 56.610380 -21.351984 45.089859 20.683973 0.000000 0.000000 0.000000 
-0.243329 70.681328 0.506662 0.000000 0.000000 0.000000 10.670853 -52.634951 10.546752 -62.240133 26.935462 42.803365 47.457988 -19.265728 3.522584 -0.218255 2.255596 -9.939945 0.000000 0.000000 0.000000 10.670853 -52.634951 10.546752 -33.704781 0.402450 -23.778457 53.160387 3.431169 -6.784893 -26.362664 -1.689905 23.875078 0.000000 0.000000 0.000000 10.670853 -52.634951 10.546752 0.000000 -0.000002 0.000000 11.042777 2.838551 -2.011978 6.244016 5.671754 -4.285773 0.000000 0.000000 0.000000 -5.640077 6.608164 -2.917740 2.645278 9.260211 -0.213892 0.000000 0.000000 0.000000 -5.640077 6.608164 -2.917740 -1.772853 -15.071253 -2.573301 -9.648144 1.877991 -45.209288 -22.751854 -26.556764 -16.251515 0.000000 0.000000 0.000000 -5.640077 6.608164 -2.917740 -5.414778 24.900594 2.343739 4.830030 -31.450450 55.681669 -21.606754 44.967414 21.111032 0.000000 0.000000 0.000000 
-0.266418 70.638115 0.675312 0.000000 0.000000 0.000000 10.070535 -54.120588 10.127963 -61.127953 25.504500 42.221699 50.147594 -17.670821 3.922299 -1.907508 3.559523 -8.979760 0.000000 0.000000 0.000000 10.070535 -54.120588 10.127963 -33.259391 1.332609 -23.276110 53.146095 3.694729 -6.932839 -26.367182 -1.574905 23.950188 0.000000 0.000000 0.000000 10.070535 -54.120588 10.127963 -0.000001 0.000002 0.000000 11.122278 2.843890 -1.960583 6.408563 5.788711 -4.285505 0.000000 0.000000 0.000000 -5.470564 6.747023 -2.854224 2.788230 9.140432 -0.154535 0.000000 0.000000 0.000000 -5.470564 6.747023 -2.854224 -1.680929 -14.154113 -2.352876 -8.774222 1.650383 -44.932102 -22.530356 -26.999734 -16.467757 0.000000 0.000000 0.000000 -5.470564 6.747023 -2.854224 -5.461411 25.266482 2.495339 3.915310 -29.781530 55.120013 -21.873959 44.541996 21.371816 0.000000 0.000000 0.000000 
